<svg preserveAspectRatio="none" width="100%" height="100%" overflow="visible" style="display: block;" viewBox="0 0 56 32" fill="none" xmlns="http://www.w3.org/2000/svg">
<g id="Group">
<path id="Vector" d="M55.3556 22.1398L54.3106 7.96126L49.0658 4.73727C49.0658 4.73727 39.7647 5.8071 36.6775 6.22785C35.563 6.37969 34.1606 6.36462 33.4558 5.51327C32.608 4.4898 28.3947 -0.000488281 28.3947 -0.000488281L9.49929 2.27189L9.65113 8.27132L0 9.36433L1.06174 24.582L7.65052 28.9076L21.0808 27.1435C22.1895 26.9482 23.2802 26.7668 23.9959 27.5498L28.0029 31.9995L46.5199 29.7515L46.5941 23.4385" fill="var(--fill-0, white)" style="fill:white;fill-opacity:1;"/>
<g id="Group_2">
<path id="Vector_2" d="M26.8742 7.91113H23.4972V23.1056H26.8742V7.91113Z" fill="var(--fill-0, #3D2663)" style="fill:#3D2663;fill:color(display-p3 0.2392 0.1490 0.3882);fill-opacity:1;"/>
<path id="Vector_3" d="M39.875 23.1063H36.4981V21.3972C35.9707 22.5366 34.6406 23.4448 32.9738 23.4448C30.5676 23.4448 28.7322 21.8829 28.7322 18.7174L28.731 18.7163V11.625H32.108V18.379C32.108 19.898 33.1425 20.4051 34.1132 20.4051C35.2103 20.4051 36.4981 19.7716 36.4981 17.7038V11.6256H39.875V23.1057V23.1063Z" fill="var(--fill-0, #3D2663)" style="fill:#3D2663;fill:color(display-p3 0.2392 0.1490 0.3882);fill-opacity:1;"/>
<path id="Vector_4" d="M16.0367 8.27295H9.65243V11.3173H15.8466C17.3053 11.3173 18.2778 11.9304 18.2778 13.2622C18.2778 14.4462 17.3053 15.2072 15.8466 15.2072H13.2039V12.4746H9.65243V15.2072H4.57855V18.0823H9.65243V23.1562H13.2039V18.0823H16.3751C19.8843 18.0823 21.8292 15.7148 21.8292 13.093C21.8292 10.4711 20.0535 8.27295 16.0367 8.27295Z" fill="var(--fill-0, #3D2663)" style="fill:#3D2663;fill:color(display-p3 0.2392 0.1490 0.3882);fill-opacity:1;"/>
<path id="Vector_5" d="M44.6759 19.368C44.7182 20.0008 45.2242 20.7392 46.68 20.7392C47.904 20.7392 48.4731 20.2124 48.4731 19.7476C48.4731 18.9669 47.3129 18.9038 45.7307 18.6511C42.0182 18.0391 41.7435 16.1411 41.7435 14.8748C41.7435 13.2289 43.558 11.2886 46.6585 11.2886C49.0422 11.2886 51.299 12.6175 51.4891 14.4314L48.1984 15.1072C48.0935 14.4952 47.6079 13.9892 46.5948 13.9892C45.4769 13.9892 45.1187 14.4535 45.1187 14.8748C45.1187 15.2961 45.3088 15.6131 47.0167 15.8241C50.0124 16.2037 51.8472 17.0904 51.8472 19.7053C51.8472 21.667 49.9278 23.4393 46.5948 23.4393C43.2619 23.4393 41.5325 21.7731 41.3847 20.0217L44.6754 19.3674V19.3686L44.6759 19.368Z" fill="var(--fill-0, #3D2663)" style="fill:#3D2663;fill:color(display-p3 0.2392 0.1490 0.3882);fill-opacity:1;"/>
</g>
</g>
</svg>
