<svg width="112" height="64" viewBox="0 0 112 64" fill="none" xmlns="http://www.w3.org/2000/svg">
<path d="M112 44.2805L109.886 15.9235L99.274 9.47552C99.274 9.47552 80.4553 11.6152 74.209 12.4567C71.9541 12.7604 69.1165 12.7302 67.6906 11.0275C65.9751 8.98057 57.4505 0 57.4505 0L19.2197 4.54477L19.527 16.5436L0 18.7296L2.1482 49.1649L15.4792 57.8163L42.6525 54.288C44.8957 53.8974 47.1024 53.5346 48.5506 55.1006L56.6579 64L94.1229 59.5039L94.273 46.878" fill="black"/>
<path d="M112 44.2805L109.886 15.9235L99.274 9.47552C99.274 9.47552 80.4553 11.6152 74.209 12.4567C71.9541 12.7604 69.1165 12.7302 67.6906 11.0275C65.9751 8.98057 57.4505 0 57.4505 0L19.2197 4.54477L19.527 16.5436L0 18.7296L2.1482 49.1649L15.4792 57.8163L42.6525 54.288C44.8957 53.8974 47.1024 53.5346 48.5506 55.1006L56.6579 64L94.1229 59.5039L94.273 46.878" fill="url(#paint0_linear_1747_290105)"/>
<path d="M64.8676 36.9219C64.8676 39.9598 66.9598 40.975 68.9238 40.975C71.1434 40.9748 73.7488 39.7072 73.7488 35.5719V23.4156H80.5801V46.3781H73.7488V42.9594C72.6817 45.2381 69.9899 47.0531 66.6176 47.0531C61.7493 47.0529 58.0332 43.9276 58.0332 37.5969V23.4156H64.8676V36.9219ZM94.3645 22.6344C99.1868 22.6344 103.754 25.2913 104.139 28.9188L97.4801 30.2719C97.2678 29.0479 96.286 28.0344 94.2363 28.0344C91.9748 28.0344 91.249 28.9637 91.2488 29.8062C91.2488 30.6489 91.6343 31.2843 95.0895 31.7063C101.151 32.4655 104.864 34.239 104.864 39.4688C104.864 43.3918 100.979 46.9344 94.2363 46.9344C87.4929 46.9343 83.9947 43.6027 83.6957 40.1L90.352 38.7906L90.3551 38.7938C90.4411 40.0592 91.4638 41.5342 94.4082 41.5344C96.8838 41.5344 98.0355 40.4825 98.0363 39.5531C98.0363 37.9921 95.6899 37.8646 92.4895 37.3594C84.9779 36.1354 84.4207 32.3388 84.4207 29.8062C84.421 26.5147 88.0919 22.6348 94.3645 22.6344ZM32.2645 16.7812C40.3907 16.7817 43.9832 21.1785 43.9832 26.4219C43.9826 31.6648 40.0476 36.3996 32.9488 36.4H26.5301V46.5469H19.3457V36.4H9.08008V30.65H19.3457V25.1844H26.5301V30.65H31.877C34.8282 30.65 36.7986 29.1272 36.7988 26.7594C36.7988 24.0958 34.8283 22.8687 31.877 22.8687H19.3457V16.7812H32.2645ZM54.2082 46.3875H47.3738V16H54.2082V46.3875Z" fill="url(#paint1_linear_1747_290105)"/>
<defs>
<linearGradient id="paint0_linear_1747_290105" x1="-1.49036e-06" y1="64" x2="90.3001" y2="-7.88987" gradientUnits="userSpaceOnUse">
<stop offset="0.413462" stop-color="#FBE4BC"/>
<stop offset="1" stop-color="#F3C37A"/>
</linearGradient>
<linearGradient id="paint1_linear_1747_290105" x1="-1.49036e-06" y1="64" x2="90.3001" y2="-7.88987" gradientUnits="userSpaceOnUse">
<stop offset="0.413462" stop-color="#FBE4BC"/>
<stop offset="1" stop-color="#F3C37A"/>
</linearGradient>
</defs>
</svg>
